<?xml version="1.0" encoding="utf-8"?>
<!-- Generator: Adobe Illustrator 23.0.1, SVG Export Plug-In . SVG Version: 6.00 Build 0)  -->
<svg version="1.1" id="Layer_1" xmlns="http://www.w3.org/2000/svg" xmlns:xlink="http://www.w3.org/1999/xlink" x="0px" y="0px"
	 viewBox="0 0 694.1 680.8" style="enable-background:new 0 0 694.1 680.8;" xml:space="preserve">
<style type="text/css">
	.st0{fill:#49BC23;}
	.st1{fill:#16A116;}
</style>
<g>
	<path class="st0" d="M217.8,92.2c43.5-28.7,87-57.2,130.5-85.9c97.3,64.1,194.7,128.1,292,192.2c0.3,94.7,0.9,189.3,1,284
		c-97.7,63.7-195.3,127.4-293,191c-1.5-1-3-1.9-4.4-2.9c1.1,0.2,2.2,0.3,3.3,0.4c0-31.9,0-63.7,0-95.5c0.1-1.2-0.2-2.5-0.8-3.5
		l0.9,0.3c64.4-41.6,128.7-83.3,193-124.9c-0.4-30-0.6-59.9-1.1-89.9c-63.6,41.8-127.3,83.3-190.9,125.1
		c-73.6-48.2-147.2-96.3-220.8-144.5c-1.3-0.9-2.8-1.6-3.9-2.7c3.3,0.1,5.7,2.7,8.4,4.3c68.5,44.8,137.2,89.5,205.7,134.3
		c3.2,2,6.5,3.9,9.5,6.3c0.1-41.6,0-83.2,0-124.9c-0.3-2.6,2.3-3.8,4.1-5c77.8-51.2,155.5-102.5,233.3-153.6
		c0.1-0.3,0.2-0.8,0.3-1.1c-68.4-44.9-136.7-90-205.1-135c-10.6-7.4-21.8-13.9-32.3-21.5c-0.9-9.8-0.1-19.9-0.4-29.8
		c-2.4,0.6-4.3,2.3-6.4,3.6C299.9,39.8,259,66.6,218.1,93.3c-1,0.7-2.1,1.1-3.3,1.2C215.2,93.2,216.9,93.1,217.8,92.2z"/>
	<path class="st0" d="M341.9,43c1.6-1.1,3.1-2.7,5.2-2.7c0.4,64.4-0.2,128.8,0.2,193.2c-0.4,39.7,0.2,79.3-0.3,119
		c-0.3-0.1-1-0.4-1.3-0.5c-78-51.3-155.9-102.6-233.9-154c-0.9-0.6-1.8-1.1-2.3-2.1C187,144.9,264.5,94,341.9,43z"/>
	<path class="st0" d="M197.8,105.6c5.4-3.9,11.1-7.9,17-11.1c-1.8,2.8-5,4-7.5,5.9C204.2,102.2,201.4,104.9,197.8,105.6z"/>
	<path class="st0" d="M195.5,107.6c0.1-1.1,0.9-1.8,2.3-1.9C197.7,107.2,196.9,107.8,195.5,107.6z"/>
	<path class="st0" d="M192.4,109.5c0.2-1.1,1-1.8,2.4-2C194.7,109.1,193.9,109.7,192.4,109.5z"/>
	<path class="st0" d="M189.5,111.5c0.1-1.1,0.9-1.8,2.3-2C191.8,111,191,111.7,189.5,111.5z"/>
	<path class="st0" d="M186.1,113.5c0.4-1,1.3-1.7,2.7-2.1C188.6,113,187.8,113.7,186.1,113.5z"/>
	<path class="st0" d="M72.1,301.4c1.6-0.2,2.5,0.4,2.6,1.9C73.3,303.1,72.4,302.5,72.1,301.4z"/>
	<path class="st0" d="M75.1,303.4c1.5-0.3,2.4,0.4,2.6,1.9C76.3,305.1,75.4,304.5,75.1,303.4z"/>
	<path class="st0" d="M103.6,322.4c2.6,0.2,5.2,1.6,6.2,4.1C107.7,325.2,105.6,323.9,103.6,322.4z"/>
	<path class="st0" d="M55.4,382.6l0.9,0.1l0.2,0.7c0.2,55.3,0,110.7,0.1,166.1c0.1,2-0.1,4-0.4,6.1c-0.4-52-0.7-104-0.9-156
		C55.4,393.9,55.2,388.2,55.4,382.6z"/>
	<path class="st0" d="M156.4,548.5c1.4-0.6,2.5,0.6,3.6,1.2c25.4,16.6,50.9,33.2,76.3,49.7c7.7,5.7,16.3,10.2,24,15.9
		c3.2,2.3,7.6,3.4,9.5,7.1c-31.8-20.4-63.4-41.1-95.1-61.6c-5.8-3.7-11.6-7.8-17.5-11.1c0,29.9,0,59.9,0,89.8
		c-32.6-21.4-65.3-42.7-98-64.1c-1-0.8-2.5-1.2-3.1-2.4c3,0.2,5.1,2.5,7.6,3.9c30.8,20,61.6,40.2,92.4,60.2
		C156.3,607.7,155.9,578.1,156.4,548.5z"/>
	<path class="st0" d="M284.4,631.5c1.5-0.3,2.4,0.4,2.4,2C285.4,633.2,284.6,632.6,284.4,631.5z"/>
	<path class="st0" d="M287.5,633.4c1.4-0.3,2.2,0.3,2.3,1.9C288.3,635.2,287.5,634.6,287.5,633.4z"/>
	<path class="st0" d="M301.1,642.4c1.7-0.2,2.5,0.5,2.6,2.1C302.3,644.1,301.4,643.5,301.1,642.4z"/>
	<path class="st0" d="M304.5,644.4c1.4-0.3,2.2,0.3,2.3,1.8C305.3,646.2,304.5,645.6,304.5,644.4z"/>
</g>
<g>
	<path class="st1" d="M340.8,13.1c2.1-1.3,4-3,6.4-3.6c0.4,9.9-0.5,19.9,0.4,29.8c10.4,7.6,21.6,14.2,32.3,21.5
		c68.4,44.9,136.7,90,205.1,135c-0.1,0.3-0.2,0.8-0.3,1.1c-77.9,51.1-155.6,102.4-233.3,153.6c-1.8,1.2-4.4,2.4-4.1,5
		c-0.1,41.6,0,83.2,0,124.9c-3-2.3-6.3-4.2-9.5-6.3c-68.5-44.8-137.2-89.5-205.7-134.3c-2.7-1.6-5-4.2-8.4-4.3
		c-4.7-2.8-9.3-5.9-13.7-8.9c-1.1-2.5-3.6-3.9-6.2-4.1c-8.7-5.3-17.1-11.1-25.7-16.6l-0.3-0.5c-0.2-1.5-1.1-2.1-2.6-1.9l-0.4,0
		c-0.1-1.5-1-2.2-2.6-1.9h-0.7c-5-3.4-10.1-6.6-15.1-9.9c0-31,0-62,0-93c43-28.4,86.1-56.7,129.1-85l0.7,0c1.7,0.2,2.6-0.5,2.7-2.1
		l0.7,0c1.5,0.2,2.3-0.5,2.3-2l0.6,0.1c1.5,0.2,2.3-0.5,2.4-2l0.7,0.1c1.5,0.2,2.2-0.4,2.3-1.9l0,0c3.6-0.7,6.4-3.4,9.5-5.2
		c2.6-1.9,5.8-3.1,7.5-5.9l0,0c1.2-0.1,2.3-0.5,3.3-1.2C259,66.6,299.9,39.8,340.8,13.1 M341.9,43c-77.4,51-154.8,102-232.3,152.9
		c0.4,1,1.4,1.5,2.3,2.1c77.9,51.4,155.9,102.7,233.9,154c0.3,0.1,1,0.4,1.3,0.5c0.5-39.6-0.1-79.3,0.3-119
		c-0.4-64.4,0.2-128.8-0.2-193.2C345,40.3,343.5,41.9,341.9,43z"/>
	<path class="st1" d="M56.5,383.4c72.1,46.6,143.9,93.6,215.8,140.3c24.7,16.1,49.5,32.1,74.1,48.3c0.6,1.1,0.8,2.3,0.8,3.5
		c-0.1,31.9,0,63.7,0,95.5c-1.1-0.1-2.2-0.3-3.3-0.4c-12.3-7.9-24.6-15.9-36.9-23.9l-0.2-0.5c-0.1-1.5-0.9-2.1-2.3-1.8l-0.8,0.1
		c-0.1-1.6-1-2.3-2.6-2.1c-3.9-1.7-7.9-4.5-11.4-7.2c-0.1-1.5-0.9-2.1-2.3-1.9l-0.6,0.1c-0.1-1.6-0.9-2.2-2.4-2l-0.9,0.1
		c-4.3-3.3-9.2-5.9-13.6-9.1c-1.9-3.7-6.3-4.8-9.5-7.1c-7.7-5.7-16.3-10.2-24-15.9c-25.5-16.6-50.9-33.1-76.3-49.7
		c-1.1-0.6-2.2-1.8-3.6-1.2c-0.5,29.6-0.1,59.2-0.2,88.7c-30.8-20-61.6-40.2-92.4-60.2c-2.4-1.5-4.6-3.7-7.6-3.9
		c0.1-5.9-0.1-11.8,0-17.6c0.3-2,0.4-4,0.4-6.1C56.4,494.1,56.7,438.7,56.5,383.4z"/>
</g>
</svg>
